<svg viewBox="0 0 420 90" xmlns="http://www.w3.org/2000/svg" with="255" height="256">
  
  <path d="m37.64 86.751c-3.4309-1.2645-8.0309-4.23488-9.4601-6.10868-.8357-1.09561-2.0982-1.48975-2.5307-.79002-.3792.61362-.772.30171-3.123-2.48-9.9724-11.7995-12.8244-17.5556-13.6748-27.6-.1862-2.2-.4681-5.512-.6264-7.36-.3513-4.10071-.079-5.73622 1.2244-7.35829.5499-.6843.9998-1.33855.9998-1.45388 0-2.44175 9.5896-13.0727 13.541-15.0114 4.7855-1.73061 8.0492-8.45861 13.308-8.81648.1967 0 1.1044-.52491 2.0171-1.16647 4.9229-3.4602 15.6139-5.18116 15.6139-2.51341 0 1.06822 2.0177 2.67698 5.5366 4.41443 3.6766 1.81534 6.2581 3.85562 7.8767 6.22545.9441 1.38231 1.4354 1.34613 1.1667-.0859-2.1399-11.4066 29.1208-17.7015 38.418-7.73608 7.8128 8.37431 10.9793 17.1285 12.1178 33.502.1163 1.672.5225 4.12.9026 5.44.6501 2.25718.6932 3.11411.7248 14.4.047 16.7181.2735 19.0422 1.9321 19.7978.4392.2001.7647.6238.7647.99529 0 .88786-15.8962 1.02491-16.7765.14464-.5766-.5766-.1693-1.73778.6096-1.73778 1.4542 0 1.8557-3.55432.958-8.48-.2566-1.408-.5613-4.03334-.6771-5.83409-.2815-4.37745-.099-4.24337-6.2587-4.6042-7.0076-.41051-21.0579-.4071-21.4702.005-.4894.48943-1.4837 10.7495-1.4952 15.4296l-.01 4.03652c-3.0788.95863-7.9832 2.22861-10.9004.87433-.1648-.10184-.2996-1.25665-.2996-2.56627 0-2.81566.1774-2.74632-2.3191-.90659-7.166 5.28084-16.5268 6.34764-27.579 3.14304-4.2537-1.23336-4.9053-.46895-1.3819 1.62126 4.5607 2.70557 5.0364 4.11522.8708 2.57988zm26.4693-10.5895c3.9174-.88191 3.9399-.89968 3.9399-3.1069 0-8.59982 1.8986-20.8042 3.4976-22.4823.6707-.704 1.9873-2.504 2.9258-4 2.607-4.15593 6.0348-8.14847 10.5366-12.2724 4.1011-3.99407 9.8063-8.04592 11.4126-13.3126.2819-.97623.9254-2.24798 1.43-2.82611 2.2277-2.55242.6089-4.78156-5.1844-7.13915-5.3909-2.19387-11.8367-1.01132-15.3677 2.81939-1.5131 1.64149-1.8042 4.13632-.7369 6.31659 1.7204 8.71996 10.2739 7.09968 9.6454-1.28287-.3164-2.80663 1.0104-1.68604 1.6492 1.39293 1.3495 6.50465-1.0494 9.65782-7.3512 9.66246-3.1889.002-5.077-.66873-6.839-2.43078-1.7425-1.7425-1.0524-1.94527-5.8472 1.71794-4.9358 3.56401-10.5627 7.8506-13.7948 11.8002-1.5984 1.96599-2.5844 2.31681-4.004 1.42471-.5566-.34979-2.1299-1.23674-3.4963-1.97102-6.0341-3.24268-6.2141-3.76398-2.0757-6.01161 5.672-3.08053 12.5542-7.8161 13.2414-9.11129.4783-.90143.4742-.90856-1.672-2.88-4.0349-3.70629-5.2726-4.22724-7.4295-3.12691-5.1529 2.50739-10.2044 7.10834-13.1409 11.9699-3.1392 5.53064-3.9831 9.9498-4.0142 21.0207l-.025 8.8 1.337 2.72c4.8059 9.77666 18.5872 15.1855 31.3631 12.3092zm43.9812-25.1505c1.1494-2.48174.1853-5.65956-.046-8.59873-.728-9.3185-1.4069-16-1.6257-16-5.0034 4.29493-8.1022 9.07393-13.25 12.97-4.8111 3.60127-10.3747 9.88952-9.8832 11.1704.5098 1.32849 23.5093 1.75343 24.8045.45829zm78.3262 33.0506c-2.9913-.25746-3.4839-.61909-3.4988-2.56854-.01-.81445-.2172-1.84082-.4687-2.28082-1.444-2.52602-.2632-3.52 4.1816-3.52 4.3408 0 4.1229.31834 4.9414-7.21652 1.628-14.9867 2.4584-16.6407 18.2254-36.3035 4.9489-6.17173 6.0696-8.28563 5.5786-10.5226-.7994-3.64199-1.7976-4.75368-6.527-7.26902-5.6662-3.01361-12.9806 2.083-12.3403 8.59869.1787 1.81798.3394 3.62601.4558 5.12747.1552 2.00254 3.7831 2.86319 6.4132 1.52142 5.5091-5.69301-2.5739-6.79378-.5566-7.88289 3.6172-1.87056 7.3572 2.59189 6.0353 7.20119-2.1658 7.55149-14.9862 7.41286-18.5651-.20075-3.635-7.73316 1.2352-16.2969 11.2991-19.8682 3.2007-1.13582 17.7568-1.66701 19.8986-.72616 3.1557 1.38627 9.9762 5.84719 13.6559 8.93158 5.6883 4.76821 8.6723 11.7008 7.9409 18.4493-.229 2.11348-.1751 5.22216.2024 11.68.3745 6.40388.4596 11.2066.3128 17.6385-.2311 10.12-.2055 10.2385 2.2257 10.3195l1.2623.042v-8c0-4.4-.067-14.624-.1485-22.72-.2062-20.4292.2251-38.7778.9179-39.0502 1.597-.62793 4.3726-.70257 11.3927-.30638 6.7072.37855 7.7498.37307 8.5582-.0449 1.4876-.76926 2.8765-.4693 3.1557.68151.551 2.27146 1.6371 16.5752 1.8371 24.1938.2603 9.91527.02 9.36517 4.391 10.0328 4.6537.71077 4.5254.51202 4.9454 7.6574.6304 10.7262.5288 10.436 3.6542 10.436 2.8318 0 2.8522-.0419 2.6099-5.35754-.5969-13.0975-.597-13.1547-.044-16.8125 1.4142-9.35848 4.6102-20.0204 8.4043-28.0371 2.1692-4.58351 3.1825-4.88279 14.5664-4.3022 3.46.17647 6.7215 1.38932 3.736 1.38932-4.8995 0-13.6118 12.0843-15.1892 21.0681-4.7708 27.17-1.4344 51.655 7.5178 55.1715 4.3256 1.69915-6.4786 2.47238-15.7295 1.12573-3.7099-.54003-3.4607.0603-3.5434-8.53567-.086-8.94155.3752-8.20511-5.2749-8.42025-6.8476-.26073-6.8293-.24013-7.5581-8.48138-.7244-8.18998-1.5739-9.20897-6.5925-7.90732-3.3873.87854-4.7571-.13258-4.3253-3.1927-.1303-5.52508-1.367-9.83651-1.9311-15.2281-.6316-6.12989-1.2508-7.25888-3.5098-6.4-.936.35585-.8787-.14664-.839 7.36.1526 28.8961.4571 42.5292.954 42.7198.2791.10712 2.4225.28131 4.763.38711 5.6681.2562 7.3624 4.97596 2.642 7.35963-1.632.82411-16.9212.56143-17.8452-.30659-.7566-.71082-.7722-.71199-1.2257-.0918-.6021.8234-21.0021.80144-22.599-.0244-3.7539-1.94121-2.4024-6.83012 1.894-6.85148 4.6106-.0229 4.9489-.43128 4.9163-5.93402-.03-5.09671-.026-5.08722-1.9714-4.38761-8.1472.56427-18.657-.2004-26.5023-.24893l-.482.73557c-.3504.5348-.5069 1.8429-.5733 4.79253-.1078 4.78409-.1244 4.75797 3.3617 5.29756 3.2768.5072 4.3484 3.28246 2.7396 7.09491l-.4652 1.10238c-7.3757-.33338-13.8145 1.46449-21.28.88459zm44.8005-29.1522c1.0918-.58435 1.3878-2.26988 1.1714-6.67173-.1099-2.23597-.048-7.37422.1384-11.4183l.3383-7.35292-.9681-1.96644c-1.0851-2.20406-5.3226-6.52772-6.3977-6.52772-.7782 0-1.1786.72984-1.973 3.5964-1.2879 4.64766-4.5591 10.4164-8.369 14.7588-4.9946 5.69266-9.043 13.7901-7.6107 15.2224.6949.69486 22.427 1.02492 23.6704.3595zm145.472 28.4818c-5.5275-.50942-9.3073-3.73792-13.44-6.39521-2.0667-1.31519-4.9965-4.08499-5.8508-5.53121-.6889-1.16625-.7811-1.13874-1.5674.46749-5.0746 10.3659-25.637 14.832-36.1608 7.85388-14.9243-9.89603-18.501-16.5954-18.501-34.6539 0-12.7686 1.3181-17.6068 7.2492-26.6076 1.2929-1.96218 2.7108-4.1724 3.1508-4.91161 3.6436-6.12126 18.3583-12.8951 22.8222-10.5061.3705.19828 2.119.63487 3.8857.97021 16.1213 3.06004 21.3776 18.3941 8.6089 25.1145-9.1217 4.80089-22.4364.66095-22.6341-7.03758-.06-2.34345.7809-2.43396 2.5976-.27951 5.676 6.73138 19.2053 2.76021 15.7209-4.61446-6.5504-13.864-28.3902-2.37289-29.3082 15.4206-.2257 4.37501-1.3057 3.90061 10.147 4.4572 20.6915 1.00558 18.3913.43197 18.0855 4.50999-.5306 7.07696-.538 7.08426-6.9055 6.79297-26.253-1.20098-23.6678-1.51947-23.1159 2.84788 1.622 12.8347 10.4003 22.1302 20.925 22.1579 14.4942.0382 21.3588-8.02627 13.1262-15.4205-3.702-3.32499-11.8736-3.80347-15.2373-.89221-1.4576 1.26152-2.398 1.39971-2.398.35235 0-7.78567 26.4774-5.64714 28.0601 2.26637.2495 1.24735.823.97161 1.1387-.54738 1.739-8.37005 7.2764-13.0196 16.9351-14.2199 11.5089-1.43016 23.3636 11.1882 14.4179 15.3468-.7521.34962-1.1218.80231-1.3609 1.66661-.5293 1.91264-2.259-.14553-3.2832-3.90661-1.7363-6.37591-15.7873-3.8235-15.3898 2.79562.553 9.21227 4.3207 12.9935 13.9603 14.0108 3.5837.77109 5.8832-1.03865 8.8056-1.95135 2.299-.36762 5.0664-3.33295 7.2936-7.81507.656-1.32 1.7595-3.02089 2.4524-3.77975 1.3969-1.52989 1.4114-1.75696.3809-5.95408-1.6368-6.66633-12.0661-16.0152-16.0761-14.4107-1.2171.48699-1.7597.48814-7.2396.0155-3.4274-.29563-9.2809-.51096-13.8902-.51096-9.5232 0-8.8248.35242-8.3126-4.19425.4946-4.38967.4865-19.8207-.012-23.3258-1.4317-10.0625-4.8122-9.03089 27.9599-8.53216 23.122.35187 20.5278-1.26367 20.6876 12.8828.1414 12.5099 1.7687 10.9768-11.6749 10.9981-19.3745.0307-18.2979.35182-18.5983-5.54776l-.2097-4.11898c3.4366.45559 6.8961.59955 9.7693.75602 2.2832-.42205 5.9937 1.63853 7.6-.34525.7709-1.70342.5536-2.93659-.038-4.49281l-11.6079.005c-12.7252.005-12.5184-.0271-12.5387 1.97002-.1507 14.8249-.01 15.5121 3.1321 15.1568 22.3595-2.52969 44.3954 12.1346 41.3819 27.5384-.2722 1.39141-.5948 3.17785-.7168 3.96985-1.9223 12.4767-19.4429 22.8063-34.2265 20.1789zm-229.12-.20995c-2.3134-.34739-5.2829-1.18695-5.6155-1.5876-.269-.32421-.2712-4.11582-.01-14.7688.7605-30.8417.9853-42.5203.9847-51.1514-.0007-6.95334.095-9.10974.4236-9.55913.6298-.86133 49.2331-.83884 50.1857.0232.911.82442.7308 1.64733-.4705 2.14927-4.7763 1.99568-8.1666 16.4204-5.1584 21.9476 1.5079 2.77053 5.3338 5.11792 10.215 6.26741 2.655.62525 2.8626.98958.9459 1.66-2.4081.84229-4.9077.87288-7.022.0859-2.5698-.95649-5.1555-1.14972-6.7076-.50123-5.2114 2.17749-7.7318-3.03208-8.3837-17.3294-.2806-6.15408.9147-5.57834-11.4981-5.53848-12.566.0404-11.0655-1.4201-10.9474 10.6554l.097 9.89555c3.4321 2.08489 5.8395 1.22159 8.4893 1.22268 8.6748 0 9.5476.66528 10.1398 7.7285l.1837 2.1915h-8.6682c-10.8885 0-9.5674-2.0864-9.4605 14.9402.099 15.7364-.1117 14.7318 2.9959 14.2967 2.7258-.40967 4.1933.0625 6.7399-.2687 1.4807-.39702 2.2582 6.09272.8412 7.02118-.736.48225-15.8159.99278-18.3011.61959zm-19.3184-.72701c-3.0944-.40873-2.7941 2.88396-3.1174-34.1829-.3905-44.7635-.4167-41.6513.3558-42.2346 4.8632-.51204 8.6686.14964 13.44.37555.018 1.99364-.1576 4.07898-.502 5.92-1.2239 18.0897.3158 30.8533-.9003 52.2365-.3757 6.25146-.365 10.0126.045 15.9057.1154 1.65801-4.4374 2.62495-9.3217 1.97979z" />

</svg>
